<svg xmlns="http://www.w3.org/2000/svg" viewBox="0 0 275.15 274.26">
<defs>
	<style>.logo-cls-1{fill:#fff;}.logo-cls-2{fill:#f37224;}.logo-cls-3{fill:#263c83;}</style>
</defs><g id="Layer_2" data-name="Layer 2"><g id="Layer_1-2" data-name="Layer 1"><polygon class="logo-cls-1" points="36.44 11.3 263.85 11.29 263.85 135.01 239.67 135.01 11.3 135.01 11.29 36.45 36.44 11.3"/><path class="logo-cls-2" d="M275.15,146.31h0V0H31.76L0,31.77V274.26H243.38l31.77-31.77ZM36.44,11.3H263.85V135H11.3V36.45Z"/><path class="logo-cls-2" d="M79.59,70.78A53.38,53.38,0,0,0,67,35.81h7.23a21,21,0,0,1,17,8.35,45.8,45.8,0,0,1-.58,54,21.18,21.18,0,0,1-16.79,8.13H66.62a53.7,53.7,0,0,0,13-35.46"/><path class="logo-cls-3" d="M68.05,104.55A54,54,0,0,1,56.53,70.78,53.76,53.76,0,0,1,68,37.1L67,35.81H62A21,21,0,0,0,44.9,44.15a45.82,45.82,0,0,0,.57,54,21.19,21.19,0,0,0,16.8,8.14h7.22c-.49-.56-1-1.11-1.44-1.69"/><rect class="logo-cls-2" x="196.82" y="35.81" width="41.93" height="16.36"/><rect class="logo-cls-2" x="196.82" y="89.87" width="41.93" height="16.36"/><polygon class="logo-cls-3" points="180.47 35.81 180.46 106.23 196.81 106.24 196.81 89.82 196.82 35.81 180.47 35.81"/><rect class="logo-cls-2" x="180.45" y="62.68" width="58.29" height="16.36"/><polygon class="logo-cls-2" points="156.73 35.81 156.73 87.71 123.39 54.34 123.39 72.86 156.73 106.24 173.09 106.24 173.09 35.81 156.73 35.81"/><polygon class="logo-cls-3" points="123.39 106.25 123.39 54.34 156.73 87.71 156.73 69.16 123.38 35.81 107.03 35.81 107.03 106.25 123.39 106.25"/><path class="logo-cls-1" d="M114.55,162.22a6.29,6.29,0,1,0,6.29,6.29,6.29,6.29,0,0,0-6.29-6.29"/><path class="logo-cls-1" d="M84.8,168.51a6.29,6.29,0,1,0,6.29-6.29,6.29,6.29,0,0,0-6.29,6.29"/><path class="logo-cls-1" d="M60.61,168.51a6.3,6.3,0,1,0,6.29-6.29,6.29,6.29,0,0,0-6.29,6.29"/><path class="logo-cls-1" d="M220.59,184.89H166.87V174.06h71V162.11H154.92v34.72h65.67a6.07,6.07,0,0,1,0,12.13H143.44V162.1H131.49v58.81h89.1a18,18,0,0,0,0-36"/><path class="logo-cls-1" d="M108.57,186.12v13.61a9.07,9.07,0,0,1-9.06,9.06H95a20.87,20.87,0,0,0,2.06-9.06V186.12H85.12v13.61a9.08,9.08,0,0,1-9.07,9.06H72.88V186.12H60.93v35.82a6.22,6.22,0,1,1-12.44,0v-13.1L36.55,196.9v25a18.17,18.17,0,1,0,36.33,0v-1.21h3.17a21,21,0,0,0,13-4.5v4.5H99.51a21,21,0,0,0,21-21V186.12Z"/></g></g></svg>